<svg xmlns="http://www.w3.org/2000/svg" width="89.541" height="76.001" fill="none" overflow="visible"><path d="M 72.524 19.187 L 72.948 20.116 L 71.493 20.505 C 68.451 21.33 67.839 21.471 66.848 21.648 C 66.281 21.775 65.801 22.016 65.791 22.265 C 65.781 22.514 64.881 22.952 63.819 23.276 C 62.772 23.571 61.815 24.055 61.702 24.29 C 61.589 24.526 61.154 24.753 60.716 24.76 C 60.263 24.796 59.93 25.036 59.906 25.314 C 59.857 25.943 58.324 26.948 58.054 26.528 C 57.949 26.369 57.733 26.519 57.577 26.843 C 57.393 27.226 57.074 27.363 56.779 27.221 C 56.367 27.024 56.309 27.068 56.534 27.43 C 56.759 27.792 56.658 27.852 56.072 27.789 C 55.706 27.721 55.297 27.816 55.227 27.963 C 55.142 28.14 54.609 28.646 54.019 29.123 C 53.427 29.601 52.867 30.238 52.769 30.518 C 52.657 30.827 51.993 31.305 51.295 31.55 C 50.583 31.825 49.918 32.231 49.818 32.437 C 49.705 32.673 49.443 32.765 49.237 32.666 C 49.031 32.567 48.726 32.748 48.556 33.028 C 48.329 33.426 48.39 33.601 48.741 33.624 C 49.503 33.699 48.889 34.601 48.013 34.689 C 47.59 34.739 47.169 34.936 47.084 35.113 C 46.985 35.319 46.68 35.427 46.388 35.431 C 46.11 35.406 45.748 35.632 45.592 35.956 C 45.437 36.28 45.148 36.504 44.914 36.464 C 44.665 36.454 44.638 36.586 44.906 36.859 C 45.218 37.19 45.392 37.129 45.662 36.642 C 45.959 36.023 45.988 36.037 45.926 36.696 C 45.881 37.545 44.926 38.175 44.856 37.415 C 44.769 36.54 43.634 37.772 43.419 38.974 C 43.315 39.721 43.073 40.149 42.769 40.256 C 42.463 40.364 42.417 40.232 42.689 39.892 C 42.86 39.611 42.928 39.245 42.778 39.101 C 42.481 38.814 42.195 39.184 41.161 41.189 C 40.749 41.97 40.42 42.356 40.401 42.093 C 40.366 41.787 40.264 41.774 40.095 42.127 C 39.953 42.422 39.987 42.729 40.135 42.799 C 40.517 42.983 40.136 43.778 39.64 43.831 C 39.42 43.834 39.284 43.515 39.32 43.061 C 39.354 42.461 39.294 42.36 39.11 42.743 C 38.939 43.023 38.65 43.174 38.458 43.119 C 38.252 43.02 38.284 43.18 38.551 43.453 C 38.85 43.79 38.726 43.972 38.181 44 C 37.742 44.008 37.278 44.22 37.165 44.456 C 37.052 44.691 36.775 44.813 36.585 44.757 C 36.379 44.659 36.321 44.703 36.426 44.862 C 36.754 45.238 35.632 47.273 35.119 47.208 C 34.812 47.169 34.769 47.258 34.979 47.576 C 35.174 47.924 35.104 48.071 34.654 48.254 C 34.219 48.48 34.162 48.597 34.4 48.857 C 34.639 49.116 34.582 49.234 34.115 49.301 C 33.794 49.364 33.606 49.455 33.724 49.511 C 33.812 49.554 33.34 50.161 32.634 50.801 C 31.944 51.485 31.212 52.33 31.028 52.713 C 30.83 53.125 30.369 53.557 29.977 53.695 C 29.497 53.864 29.125 54.337 28.79 55.264 C 28.48 55.985 28.196 56.502 28.12 56.357 C 28.001 56.227 27.884 56.244 27.799 56.42 C 27.728 56.568 27.763 56.874 27.868 57.033 C 27.989 57.214 28.015 57.443 27.936 57.646 C 27.852 57.823 27.705 57.826 27.6 57.666 C 27.495 57.507 27.058 57.587 26.595 57.873 C 25.568 58.503 25.497 58.651 26.244 58.755 C 26.606 58.808 26.563 58.896 26.117 59.021 C 25.709 59.115 25.219 59.532 25.007 59.974 C 24.781 60.446 24.535 60.655 24.415 60.452 C 24.31 60.293 24.134 60.281 24.064 60.428 C 23.838 60.9 23.68 61.078 22.773 61.911 C 22.282 62.329 21.897 62.905 21.859 63.213 C 21.835 63.564 21.705 63.683 21.469 63.497 C 21.231 63.311 21.014 63.46 20.819 64.019 C 20.68 64.459 20.263 64.876 19.914 64.999 C 19.55 65.077 19.145 65.391 19.018 65.657 C 18.877 65.951 18.588 66.175 18.354 66.135 C 18.149 66.109 17.788 66.408 17.531 66.792 C 17.318 67.161 17.047 67.575 16.99 67.692 C 16.89 67.826 16.758 67.799 16.654 67.639 C 16.548 67.48 16.314 67.513 16.084 67.693 C 15.882 67.886 15.43 67.923 15.106 67.767 C 14.782 67.612 14.432 67.661 14.318 67.897 C 14.205 68.133 13.886 68.269 13.608 68.245 C 12.378 68.162 14.134 63.748 17.261 59.195 C 18.274 57.687 19.216 56.253 19.358 56.032 C 19.471 55.796 20.001 55.144 20.533 54.566 C 21.381 53.703 22.269 52.534 23.553 50.613 C 23.738 50.303 23.924 50.066 23.954 50.08 C 23.983 50.094 24.197 49.799 24.424 49.4 C 25.337 47.952 26.398 46.722 26.634 46.835 C 26.782 46.906 26.982 46.639 27.093 46.257 C 27.329 45.537 27.43 45.404 31.041 40.974 C 32.273 39.463 33.693 37.715 34.193 37.049 C 35.224 35.731 35.784 35.093 35.842 35.121 C 35.872 35.135 36.03 34.957 36.202 34.75 C 36.374 34.542 37.123 33.814 37.887 33.202 C 38.637 32.547 39.312 31.82 39.424 31.51 C 39.522 31.231 39.781 30.993 40.014 30.96 C 40.204 30.942 40.535 30.63 40.691 30.306 C 40.846 29.982 41.453 29.548 42.049 29.363 C 42.646 29.177 43.036 28.893 42.902 28.72 C 42.752 28.503 43.139 28.073 43.862 27.549 C 44.526 27.071 45.151 26.826 45.256 26.986 C 45.361 27.145 45.521 27.113 45.561 26.878 C 45.867 25.937 46.17 25.684 46.557 26.087 C 46.75 26.289 46.882 26.316 46.878 26.097 C 46.875 25.878 46.961 25.774 47.108 25.845 C 47.256 25.915 47.487 25.736 47.628 25.441 C 48.123 24.41 48.311 24.246 48.811 24.486 C 49.077 24.614 49.237 24.581 49.204 24.421 C 49.037 24.015 50.069 23.603 50.324 23.98 C 50.444 24.182 50.587 24.034 50.624 23.58 C 50.73 22.906 51.05 22.842 51.76 23.327 C 51.878 23.383 52.051 23.249 52.164 23.013 C 52.277 22.778 52.524 22.643 52.671 22.713 C 52.848 22.798 53.093 22.589 53.234 22.294 C 53.39 21.97 53.707 21.687 53.897 21.67 C 54.13 21.637 54.274 21.488 54.257 21.371 C 54.255 21.225 55.037 20.803 55.953 20.481 C 56.869 20.159 57.696 19.795 57.753 19.677 C 57.823 19.53 58.044 19.599 58.237 19.801 C 58.475 20.06 58.679 20.013 58.834 19.689 C 58.961 19.423 59.166 19.376 59.271 19.535 C 59.405 19.709 59.608 19.588 59.763 19.264 C 59.947 18.881 60.179 18.775 60.388 19.02 C 60.61 19.235 60.931 19.172 61.218 18.875 C 61.477 18.564 61.81 18.398 61.958 18.468 C 62.105 18.539 62.892 18.409 63.722 18.191 C 64.522 17.958 65.135 17.89 65.079 18.008 C 65.022 18.126 65.255 18.093 65.589 17.926 C 65.907 17.717 67.058 17.508 68.08 17.418 C 70.344 17.235 71.961 17.867 72.524 19.187 Z M 46.415 33.487 C 46.268 33.416 46.05 33.493 45.965 33.669 C 45.894 33.817 46.014 33.946 46.204 33.929 C 46.423 33.926 46.611 33.834 46.654 33.746 C 46.682 33.687 46.592 33.572 46.415 33.487 Z M 38.686 41.74 C 38.597 41.699 38.393 41.746 38.22 41.88 C 38.061 41.985 38.049 42.161 38.197 42.232 C 38.373 42.316 38.592 42.24 38.662 42.092 C 38.746 41.915 38.744 41.77 38.686 41.74 Z M 16.958 66.553 C 16.774 66.029 16.068 65.763 15.884 66.146 C 15.771 66.382 15.935 66.569 16.36 66.665 C 16.757 66.746 17.004 66.684 16.958 66.552 Z M 11.989 0.44 C 12.434 0.798 12.835 1.245 12.794 1.406 C 12.768 1.611 12.918 1.828 13.08 1.943 C 13.287 2.042 13.56 2.607 13.73 3.233 C 13.872 3.845 14.273 5.198 14.583 6.216 C 14.892 7.234 15.024 8.167 14.88 8.316 C 14.737 8.465 14.777 9.136 14.963 9.806 C 15.149 10.475 15.22 11.234 15.109 11.543 C 14.659 12.632 14.676 12.822 15.089 13.02 C 15.327 13.142 15.429 13.429 15.319 13.674 C 15.191 13.939 15.275 14.596 15.504 15.177 C 15.733 15.758 15.817 16.414 15.747 16.634 C 15.634 16.87 15.631 17.557 15.714 18.214 C 15.87 19.629 15.846 20.887 15.62 21.359 C 15.521 21.565 15.617 22.046 15.827 22.436 C 16.038 22.828 16.148 23.279 16.063 23.456 C 15.908 23.78 15.927 27.669 16.093 28.002 C 16.169 28.147 16.108 28.879 15.96 29.642 C 15.827 30.448 15.823 31.135 15.97 31.206 C 16.147 31.29 16.138 31.612 15.982 31.937 C 15.827 32.261 15.847 32.597 15.995 32.667 C 16.171 32.752 16.175 33.044 16.035 33.339 C 15.893 33.634 15.86 34.234 15.94 34.671 C 16.005 35.138 15.924 35.534 15.78 35.609 C 15.648 35.655 15.61 36.036 15.72 36.414 C 15.843 36.836 15.684 37.847 15.42 38.699 C 15.099 39.596 15.025 40.431 15.219 40.705 C 15.384 40.966 15.421 41.418 15.293 41.684 C 15.153 41.978 15.116 42.432 15.223 42.737 C 15.361 43.129 15.219 43.351 14.641 43.799 C 13.905 44.352 13.81 44.851 14.459 45.161 C 14.665 45.261 14.558 45.862 14.206 46.671 C 13.063 49.205 12.91 49.675 13.234 49.831 C 13.381 49.901 13.511 49.782 13.478 49.549 C 13.459 49.286 13.59 49.24 13.783 49.442 C 14.199 49.859 13.862 50.713 13.404 50.383 C 13.196 50.211 13.097 50.418 13.022 51.179 C 12.973 51.735 13.083 52.187 13.243 52.155 C 13.403 52.123 13.478 52.268 13.408 52.415 C 13.323 52.592 12.957 52.598 12.604 52.428 C 12.162 52.241 12.071 52.33 12.33 52.696 C 12.526 53.044 12.545 53.306 12.312 53.34 C 12.122 53.357 11.794 53.889 11.614 54.491 C 11.322 55.403 11.339 55.519 11.756 55.103 C 12.073 54.82 12.004 55.113 11.55 55.91 C 10.896 57.046 10.766 57.166 10.146 56.796 L 9.511 56.382 L 10.047 57.002 C 10.569 57.578 10.499 57.872 9.569 59.963 C 9.344 60.507 9.282 61.167 9.447 61.427 C 9.703 61.876 9.674 61.934 9.208 62 C 8.901 62.035 8.297 62.615 7.87 63.28 C 7.185 64.329 6.996 64.42 6.13 64.185 C 5.557 64.019 5.032 64.13 4.745 64.427 C 4.501 64.709 4.138 64.861 3.962 64.776 C 3.755 64.677 3.565 64.695 3.582 64.812 C 3.569 64.914 3.221 65.11 2.785 65.263 C 2.131 65.493 1.969 65.452 1.727 64.9 C 1.454 64.335 1.426 64.394 1.458 65.46 C 1.512 67.009 1.342 67.289 0.719 66.773 C -0.289 65.927 -0.227 63.383 0.843 58.205 C 1.062 57.295 1.205 56.24 1.243 55.86 C 1.251 55.465 1.436 54.321 1.596 53.31 C 2.13 50.158 2.759 45.748 2.79 45.002 C 2.836 43.32 3.385 40.212 3.602 40.062 C 3.746 39.986 3.715 39.826 3.568 39.756 C 3.39 39.671 3.356 39.364 3.498 39.069 C 3.624 38.804 3.659 38.204 3.564 37.797 C 3.484 37.359 3.518 36.759 3.66 36.465 C 3.787 36.199 3.874 35.263 3.86 34.386 C 3.832 33.538 4.017 32.394 4.272 31.864 C 4.526 31.334 4.62 30.835 4.502 30.779 C 4.148 30.609 4.178 27.977 4.538 27.606 C 4.726 27.442 4.74 26.507 4.606 25.5 C 4.459 24.522 4.428 23.529 4.513 23.352 C 4.612 23.146 4.728 22.223 4.815 21.286 C 5.638 8.993 6.139 5.681 7.645 2.089 C 8.362 0.368 8.577 0.072 8.86 0.389 C 9.32 0.864 10.649 0.74 10.917 0.18 C 11.059 -0.115 11.323 -0.06 11.989 0.44 Z M 88.392 55.401 C 88.38 55.577 88.544 55.765 88.792 55.775 C 89.041 55.785 89.325 56.175 89.464 56.641 C 89.744 57.644 89.324 57.914 87.235 57.964 C 86.577 57.974 85.09 58.203 83.997 58.44 C 82.89 58.707 81.884 58.84 81.737 58.77 C 81.589 58.699 81.344 58.908 81.189 59.232 C 81.033 59.556 80.729 59.736 80.493 59.623 C 80.258 59.51 79.892 59.516 79.69 59.636 C 79.43 59.801 79.578 59.945 80.21 60.14 L 81.09 60.344 L 80.175 60.666 C 79.535 60.891 79.172 60.741 79.085 60.216 C 78.998 59.692 78.842 59.641 78.615 60.063 C 78.389 60.535 78.2 60.626 77.932 60.352 C 77.753 60.121 77.505 60.111 77.406 60.317 C 77.137 60.876 75.987 61.159 76.051 60.646 C 76.09 60.338 75.885 60.313 75.274 60.454 C 74.808 60.593 74.282 60.631 74.106 60.546 C 73.9 60.447 73.653 60.583 73.54 60.819 C 73.426 61.054 73.122 61.162 72.856 61.034 C 72.591 60.907 72.199 61.045 71.955 61.327 C 71.71 61.609 71.377 61.774 71.23 61.704 C 71.083 61.634 70.997 61.737 71 61.957 C 71.017 62.146 70.77 62.209 70.417 62.039 C 70.063 61.869 69.83 61.902 69.833 62.122 C 69.866 62.355 69.545 62.346 69.103 62.134 C 68.69 61.936 68.339 61.912 68.356 62.102 C 68.374 62.292 67.606 62.685 66.616 62.935 C 61.611 64.375 47.479 69.124 44.153 70.465 C 42.571 71.099 40.988 71.729 39.404 72.355 C 35.41 73.955 35.076 74.122 35.406 74.642 C 35.631 75.004 35.514 75.02 35.014 74.78 C 34.336 74.455 32.285 75.102 31.945 75.736 C 31.648 76.355 30.967 75.811 30.967 74.905 C 30.951 73.955 32.407 70.919 32.917 70.838 C 33.107 70.82 33.467 70.449 33.723 70.064 C 33.965 69.637 34.295 69.251 34.455 69.22 C 34.586 69.173 34.713 68.908 34.738 68.63 C 34.763 68.352 34.965 68.232 35.26 68.372 C 35.732 68.599 35.862 68.48 36.542 67.212 C 36.826 66.696 37.189 66.543 37.761 66.636 C 38.23 66.716 38.42 66.699 38.257 66.584 C 37.741 66.3 38.083 65.739 38.613 65.994 C 38.848 66.107 39.155 66.073 39.226 65.925 C 39.583 65.407 39.726 65.259 40.694 64.527 C 41.229 64.168 41.794 63.896 41.942 63.966 C 42.089 64.037 42.233 63.888 42.257 63.61 C 42.282 63.332 42.615 63.093 43.067 63.056 C 43.506 63.049 43.898 62.911 43.983 62.734 C 44.068 62.557 44.386 62.347 44.705 62.21 C 45.867 61.753 46.882 61.225 46.981 61.018 C 47.038 60.901 47.78 60.713 48.612 60.641 C 49.458 60.539 50.201 60.352 50.257 60.234 C 50.455 59.821 54.104 58.563 54.517 58.761 C 54.694 58.846 54.955 58.754 55.054 58.548 C 55.139 58.371 55.966 58.006 56.883 57.758 C 57.8 57.509 58.511 57.161 58.493 56.971 C 58.461 56.811 58.724 56.792 59.048 56.947 C 59.401 57.117 59.68 57.142 59.721 56.98 C 59.759 56.6 61.894 55.775 62.336 55.987 C 62.542 56.086 62.762 56.083 62.832 55.935 C 62.889 55.818 63.53 55.69 64.245 55.635 C 64.976 55.623 65.997 55.46 66.52 55.276 C 67.043 55.092 67.934 55.048 68.462 55.156 C 69.621 55.386 70.844 55.103 71.127 54.514 C 71.226 54.307 71.576 54.258 71.87 54.4 C 72.166 54.54 72.589 54.49 72.82 54.31 C 73.021 54.117 73.385 54.038 73.65 54.165 C 73.886 54.279 74.164 54.23 74.234 54.083 C 74.319 53.906 74.581 53.887 74.817 54 C 75.053 54.114 75.623 54.06 76.043 53.864 C 76.493 53.68 77.003 53.599 77.18 53.684 C 77.357 53.769 77.81 53.732 78.143 53.566 C 79.304 53.035 84.265 53.348 84.318 53.918 C 84.351 54.151 84.556 54.178 84.874 53.968 C 85.193 53.758 85.617 53.78 86.046 54.095 C 86.387 54.367 86.739 54.463 86.796 54.345 C 86.965 53.991 88.443 54.991 88.392 55.401 Z" fill="rgb(252,215,24)"></path></svg>