<svg xmlns="http://www.w3.org/2000/svg" width="115.453" height="133.129" fill="none" overflow="visible"><g><path d="M 1.9 132.997 C 1.652 132.792 1.145 132.427 0.708 132.172 C -0.059 131.646 -0.293 129.885 0.46 130.086 C 0.743 130.162 0.906 129.93 0.856 129.55 C 0.807 129.169 1.133 128.89 1.733 128.913 C 2.332 128.936 2.66 128.656 2.575 128.22 C 2.548 127.754 2.875 127.475 3.58 127.48 C 4.296 127.442 4.613 127.206 4.573 126.599 C 4.559 126.09 4.802 125.742 5.319 125.697 C 5.777 125.682 6.057 125.39 5.985 125.095 C 5.866 124.788 6.228 124.564 6.78 124.574 C 7.474 124.622 8.304 123.972 9.189 122.741 C 9.981 121.668 10.998 120.885 11.514 120.84 C 12.02 120.837 12.5 120.553 12.58 120.253 C 12.878 119.14 14.338 117.833 14.904 118.168 C 15.199 118.385 15.646 118.412 15.903 118.206 C 16.113 117.987 16.076 117.748 15.794 117.672 C 15.276 117.533 15.673 117.181 17.885 115.891 C 18.471 115.589 18.985 115.176 19.043 114.962 C 19.088 114.791 19.615 114.519 20.213 114.358 C 20.799 114.24 21.22 113.802 21.159 113.464 C 21.096 112.759 23.764 111.087 24.611 111.314 C 24.94 111.402 25.149 110.999 25.227 110.332 C 25.234 109.553 25.467 109.248 25.891 109.362 C 26.063 109.411 26.247 109.389 26.403 109.302 C 26.559 109.214 26.674 109.069 26.722 108.896 C 26.814 108.554 27.082 108.304 27.365 108.38 C 27.6 108.443 27.939 108.121 28.065 107.65 C 28.18 107.221 28.764 106.735 29.35 106.617 C 29.937 106.499 30.334 106.146 30.262 105.852 C 30.107 105.489 30.271 105.441 30.707 105.696 C 31.132 105.993 31.6 105.751 32.3 104.837 C 32.928 103.996 33.701 103.56 34.5 103.591 C 35.147 103.626 35.767 103.38 35.847 103.08 C 35.928 102.78 36.698 101.977 37.587 101.297 C 38.428 100.604 38.988 100.02 38.8 99.97 C 38.623 99.876 39.069 99.72 39.82 99.554 C 40.558 99.431 41.144 99.129 41.108 98.89 C 41.033 98.227 44.025 95.908 44.941 95.878 C 45.458 95.833 45.926 95.591 46.018 95.249 C 46.099 94.949 46.589 94.438 47.104 94.209 C 47.584 93.924 47.853 93.675 47.664 93.624 C 47.476 93.574 47.78 93.38 48.343 93.163 C 48.952 92.96 49.527 92.884 49.646 93.008 C 49.764 93.131 50.044 92.839 50.181 92.325 C 50.366 91.824 50.775 91.429 51.081 91.419 C 51.338 91.396 51.548 91.177 51.418 90.912 C 51.334 90.66 51.757 90.59 52.38 90.711 C 52.992 90.875 53.215 90.797 52.92 90.58 C 52.578 90.351 52.858 90.059 53.818 89.674 C 54.604 89.379 55.282 88.918 55.362 88.619 C 55.431 88.362 56.461 87.72 57.644 87.257 C 58.828 86.793 60.221 85.927 60.781 85.343 C 61.329 84.802 62.569 83.94 63.459 83.444 C 64.348 82.949 65.084 82.274 65.023 81.936 C 64.985 81.513 65.395 81.301 66.195 81.332 C 67.145 81.357 67.333 81.224 67.035 80.639 C 66.571 79.735 63.77 78.892 64.093 79.759 C 64.201 80.109 64.142 80.14 63.859 79.88 C 63.622 79.633 62.366 79.801 61.089 80.239 C 59.822 80.634 58.532 80.931 58.297 80.868 C 58.015 80.792 57.322 80.928 56.795 81.2 C 56.221 81.459 55.082 81.567 54.259 81.438 C 53.436 81.31 52.228 81.491 51.548 81.768 C 50.903 82.1 49.683 82.324 48.943 82.263 C 48.144 82.232 47.451 82.368 47.394 82.582 C 47.337 82.796 46.82 82.842 46.208 82.678 C 45.643 82.526 43.765 82.757 42.041 83.167 C 40.364 83.59 38.991 83.819 39.025 83.69 C 39.06 83.562 38.449 83.582 37.604 83.723 C 35.738 84.095 27.847 84.551 25.966 84.414 C 25.132 84.328 23.217 84.32 21.69 84.37 C 17.732 84.456 14.013 83.46 10.592 81.35 C 8.163 79.873 7.809 79.503 8.192 78.825 C 8.634 78.117 8.516 77.994 7.176 77.91 C 5.941 77.809 5.776 77.673 6.161 77.179 C 6.452 76.844 6.508 76.263 6.341 75.943 C 6.174 75.622 6.074 74.678 6.104 73.814 C 6.13 72.398 6.2 72.325 7.084 72.791 C 7.745 73.152 8.214 73.094 8.576 72.686 C 8.82 72.338 9.405 71.852 9.873 71.611 C 10.411 71.296 10.539 71.009 10.289 70.621 C 9.72 69.734 9.987 69.3 10.835 69.527 C 11.305 69.654 11.562 69.447 11.477 69.011 C 11.44 68.588 11.837 68.236 12.423 68.117 C 13.01 67.999 13.56 67.642 13.64 67.342 C 13.732 66.999 14.295 66.782 14.905 66.762 C 15.646 66.823 16.628 66.169 17.724 64.902 C 19.439 63.021 21.288 61.772 22.134 61.999 C 22.37 62.062 22.534 61.83 22.484 61.45 C 22.434 61.069 22.808 60.803 23.408 60.825 C 24.101 60.874 24.314 61.022 24.045 61.272 C 23.823 61.533 24.222 61.365 24.889 60.947 C 25.602 60.542 26.21 59.97 26.302 59.627 C 26.393 59.284 26.651 59.078 26.933 59.154 C 27.169 59.217 27.484 58.98 27.587 58.595 C 27.679 58.252 27.961 58.144 28.161 58.336 C 28.398 58.583 28.948 58.225 29.425 57.573 C 29.903 56.92 30.745 56.412 31.309 56.379 C 32.061 56.397 32.201 56.251 31.846 55.881 C 31.492 55.51 31.632 55.364 32.442 55.352 C 33.1 55.344 33.603 54.974 33.775 54.332 C 33.946 53.69 34.263 53.453 34.816 53.647 C 35.334 53.786 35.732 53.617 35.882 53.061 C 36.007 52.589 36.334 52.31 36.652 52.441 C 36.96 52.615 37.522 52.398 37.93 52.003 C 38.339 51.608 38.959 51.361 39.289 51.449 C 39.666 51.55 40.146 51.266 40.413 50.833 C 40.681 50.399 40.666 50.074 40.386 50.183 C 40.116 50.248 39.962 50.069 40.019 49.855 C 40.049 49.729 40.131 49.62 40.243 49.555 C 40.356 49.489 40.491 49.473 40.616 49.51 C 41.322 49.7 43.347 48.544 43.121 48.07 C 42.979 47.848 43.073 47.873 43.32 48.078 C 44.006 48.721 48.246 46.643 48.31 45.651 C 48.33 45.197 48.739 44.802 49.197 44.787 C 49.62 44.717 50.052 44.419 50.156 44.034 C 50.247 43.691 50.751 43.505 51.269 43.644 C 51.787 43.783 52.291 43.596 52.394 43.211 C 52.486 42.869 52.731 42.705 52.921 42.939 C 53.405 43.39 53.861 43.007 54.545 41.584 C 55.125 40.363 55.849 39.73 55.608 40.63 C 55.39 41.443 56.527 40.968 57.307 39.938 C 57.692 39.444 58.289 39.1 58.665 39.2 C 58.995 39.288 59.778 38.626 60.465 37.755 C 61.117 36.828 61.935 36.221 62.195 36.382 C 62.56 36.526 62.84 36.234 62.953 35.438 C 63.123 34.428 63.31 34.294 63.993 34.569 C 64.664 34.887 64.851 34.753 64.8 34.005 C 64.796 33.453 64.994 33.093 65.276 33.169 C 65.512 33.232 65.64 33.129 65.592 32.932 C 65.508 32.68 66.28 32.245 67.335 31.885 C 68.343 31.512 69.314 30.9 69.418 30.515 C 69.532 30.087 69.954 29.833 70.33 29.933 C 70.707 30.034 71.058 29.853 71.08 29.583 C 71.066 29.259 71.358 29.107 71.618 29.269 C 72.337 29.599 72.59 28.841 71.942 28.437 C 71.423 28.115 75.029 26.143 75.734 26.333 C 75.97 26.396 76.133 26.164 76.084 25.784 C 76.034 25.403 76.477 24.88 77.11 24.59 C 77.684 24.33 78.153 24.273 78.096 24.487 C 78.039 24.701 78.32 24.593 78.717 24.24 C 79.114 23.888 79.584 23.829 79.868 24.089 C 80.151 24.349 80.15 24.166 79.888 23.636 C 79.531 22.898 79.565 22.769 80.083 22.908 C 80.648 23.059 80.671 22.974 80.233 22.535 C 79.831 22.152 80.019 22.019 80.97 22.044 C 81.722 22.062 82.227 21.876 82.107 21.569 C 82.034 21.274 82.396 20.866 82.947 20.692 C 83.779 20.41 83.861 20.294 83.307 20.1 C 82.707 19.893 82.718 19.851 83.504 19.556 C 83.96 19.357 84.58 18.927 84.872 18.592 C 85.128 18.201 85.596 17.96 85.879 18.035 C 86.161 18.111 86.209 18.307 85.999 18.527 C 85.789 18.746 85.966 18.839 86.436 18.781 C 87.046 18.761 87.139 18.603 86.773 18.275 C 86.465 17.917 86.64 17.643 87.495 17.275 C 88.35 16.908 88.583 16.603 88.357 16.129 C 88.166 15.711 88.188 15.441 88.564 15.358 C 88.845 15.25 89.151 15.424 89.271 15.731 C 89.499 16.389 90.299 16.604 90.459 16.004 C 90.516 15.79 90.363 15.611 90.093 15.676 C 89.823 15.742 89.586 15.495 89.49 15.102 C 89.441 14.722 89.662 14.459 89.897 14.522 C 90.18 14.598 90.424 14.251 90.41 13.741 C 90.417 13.147 90.639 12.885 91.11 13.011 C 91.486 13.112 91.673 12.979 91.601 12.684 C 91.517 12.432 91.716 12.256 92.045 12.344 C 92.375 12.432 93.044 12.382 93.478 12.269 C 94.134 12.078 94.18 11.906 93.778 11.523 C 93.14 10.893 94.025 9.661 94.919 9.901 C 95.296 10.002 95.636 9.864 95.705 9.607 C 95.773 9.35 96.09 9.297 96.385 9.514 C 96.645 9.675 97.256 9.655 97.665 9.444 C 98.262 9.099 98.297 8.97 97.826 8.844 C 97.497 8.756 97.707 8.537 98.293 8.419 C 98.88 8.3 99.489 8.097 99.677 7.963 C 99.864 7.83 101.271 7.472 102.867 7.166 C 105.202 6.736 106.267 6.149 108.289 4.442 C 109.632 3.195 111.02 1.778 111.369 1.228 C 112.381 -0.474 113.673 -0.403 114.801 1.413 C 115.632 2.829 115.67 3.253 114.908 5.343 C 114.159 7.575 114.307 8.717 115.12 7.19 C 115.376 6.8 114.998 8.397 114.273 10.727 C 112.859 15.627 112.476 16.304 108.565 20.167 C 104.024 24.687 92.371 33.911 91.079 34.024 C 90.824 34.084 90.62 34.274 90.542 34.523 C 90.404 35.037 85.492 38.494 83.782 39.229 C 83.138 39.561 82.518 39.992 82.449 40.249 C 82.381 40.506 81.188 41.379 79.771 42.147 C 78.401 42.928 77.162 43.789 76.976 44.106 C 76.592 44.784 73.981 46.058 73.322 45.882 C 73.087 45.818 72.784 46.196 72.634 46.752 C 72.451 47.438 72.287 47.486 72.119 46.982 C 71.916 46.422 71.704 46.457 71.086 47.072 C 70.63 47.455 70.422 47.858 70.562 47.895 C 71.174 48.059 67.629 50.184 66.349 50.438 C 65.61 50.562 64.92 51.065 64.805 51.493 C 64.691 51.922 64.024 52.34 63.307 52.378 C 62.486 52.432 62.064 52.687 62.126 53.208 C 62.211 53.644 62.001 53.863 61.531 53.737 C 61.154 53.636 60.323 54.102 59.681 54.802 C 59.051 55.459 58.091 56.028 57.587 56.031 C 57.034 56.02 56.074 56.589 55.457 57.388 C 54.723 58.247 54.125 58.592 53.853 58.29 C 53.522 58.017 53.464 58.047 53.56 58.44 C 53.764 59 49.118 61.84 48.306 61.668 C 47.788 61.529 46.079 62.448 46.538 62.617 C 46.727 62.668 46.34 62.793 45.623 62.831 C 44.684 62.947 44.497 63.08 44.899 63.463 C 45.337 63.902 45.255 64.017 44.552 64.196 C 44.118 64.309 42.842 65.115 41.732 66.057 C 40.634 66.956 40.051 67.626 40.379 67.53 C 40.696 67.477 41.085 67.719 41.24 68.082 C 41.443 68.641 41.537 68.667 41.653 68.238 C 41.733 67.939 41.955 67.861 42.203 68.065 C 42.404 68.256 42.651 68.277 42.708 68.062 C 42.823 67.634 44.326 67.486 45.972 67.744 C 46.513 67.797 47.099 67.679 47.298 67.502 C 47.824 67.046 53.622 66.305 54.611 66.57 C 54.987 66.671 55.914 66.414 56.686 65.979 C 57.459 65.543 58.574 65.337 59.28 65.526 C 59.939 65.703 60.514 65.627 60.571 65.413 C 60.64 65.156 60.911 65.275 61.207 65.675 C 61.503 66.076 61.553 66.457 61.33 66.535 C 61.154 66.625 60.84 67.046 60.62 67.492 C 60.4 67.938 60.483 68.19 60.74 67.983 C 60.986 67.819 61.561 67.744 61.938 67.845 C 62.314 67.946 62.69 67.863 62.758 67.606 C 62.816 67.392 63.13 66.971 63.446 66.734 C 63.843 66.382 64.079 66.445 64.493 66.969 C 64.908 67.493 65.237 67.581 65.705 67.339 C 66.407 66.977 65.512 66.554 63.077 66.039 C 61.196 65.718 61.697 64.98 64.067 64.606 C 65.699 64.355 66.391 64.403 66.289 64.788 C 66.219 65.045 66.559 64.906 67.049 64.395 C 67.54 63.884 68.194 63.509 68.524 63.597 C 68.865 63.642 69.442 63.752 69.877 63.822 C 70.253 63.923 70.499 63.759 70.427 63.464 C 70.343 63.213 70.683 63.073 71.2 63.213 C 71.671 63.338 72.154 63.606 72.238 63.858 C 72.287 64.054 72.321 63.926 72.307 63.601 C 72.305 63.233 72.773 62.992 73.326 63.002 C 73.831 63 74.522 62.68 74.836 62.26 C 75.173 61.753 75.608 61.64 76.138 61.92 C 76.574 62.174 77.138 62.142 77.371 61.837 C 77.825 61.27 83.152 60.219 83.014 60.732 C 82.968 60.904 83.378 60.692 83.94 60.292 C 84.454 59.88 85.111 59.688 85.311 59.88 C 85.501 60.114 85.724 60.036 85.781 59.822 C 85.85 59.565 86.952 59.218 88.266 59.019 C 89.581 58.821 90.671 58.516 90.729 58.302 C 90.787 58.087 91.067 57.98 91.397 58.067 C 91.726 58.157 92.606 57.887 93.414 57.507 C 95.85 56.324 100.565 56.99 99.058 58.285 C 98.801 58.491 98.802 58.675 99.049 58.695 C 100.918 58.875 101.155 59.306 100.355 60.973 C 99.787 62.152 99.708 62.636 100.142 62.522 C 100.47 62.426 100.717 62.447 100.683 62.576 C 100.66 62.661 100.686 63.127 100.76 63.606 C 100.822 64.127 100.729 64.286 100.41 63.971 C 100.162 63.767 99.821 63.721 99.622 63.898 C 99.377 64.061 99.426 64.442 99.662 64.689 C 99.982 65.004 99.889 65.162 99.396 65.306 C 98.857 65.437 98.835 65.706 99.31 66.568 C 99.726 67.276 99.728 67.644 99.399 67.556 C 98.975 67.442 98.965 67.669 99.368 68.236 C 99.962 69.221 98.997 70.936 97.497 71.452 C 97.04 71.651 96.655 71.961 96.656 72.145 C 96.637 72.966 95.55 73.822 94.96 73.389 C 94.453 73.023 93.801 73.95 93.68 75.341 C 93.635 75.512 93.423 75.547 93.105 75.416 C 92.799 75.242 92.517 75.35 92.413 75.552 C 92.079 76.61 88.879 79.516 87.403 80.13 C 86.5 80.485 85.869 80.958 85.976 81.125 C 86.13 81.303 85.86 81.369 85.436 81.255 C 85.06 81.154 84.497 81.371 84.242 81.761 C 83.938 82.139 82.909 82.965 81.892 83.564 C 80.873 84.164 79.586 85.012 79.002 85.498 C 78.418 85.984 77.47 86.51 76.966 86.696 C 76.415 86.87 75.912 87.24 75.843 87.497 C 75.774 87.754 74.663 88.512 73.41 89.232 C 68.377 92.014 66.786 93.057 66.602 93.742 C 66.487 94.17 65.926 94.57 65.34 94.689 C 64.753 94.807 64.237 95.036 64.18 95.25 C 64.134 95.421 62.847 96.27 61.361 97.111 C 59.827 97.939 57.932 99.175 57.102 99.825 C 55.279 101.356 51.299 103.594 50.863 103.34 C 50.687 103.246 50.277 103.642 49.917 104.234 C 49.232 105.473 47.302 106.838 46.549 106.636 C 46.267 106.56 45.985 106.668 45.928 106.882 C 45.87 107.097 45.367 107.283 44.85 107.328 C 44.251 107.305 43.865 107.615 43.914 107.995 C 43.964 108.376 43.391 108.819 42.629 109.028 C 41.855 109.279 41.27 109.581 41.365 109.791 C 41.413 109.987 40.572 110.68 39.448 111.296 C 38.383 111.883 37.553 112.533 37.695 112.754 C 37.802 112.921 37.415 113.047 36.804 113.066 C 36.205 113.044 35.677 113.132 35.631 113.303 C 35.585 113.474 34.357 114.292 32.87 115.133 C 31.372 116.017 30.098 117.007 29.995 117.392 C 29.903 117.735 29.53 118.186 29.179 118.367 C 28.827 118.548 28.173 119.107 27.706 119.533 C 27.274 120.014 26.161 120.404 25.256 120.391 C 24.199 120.383 23.578 120.63 23.51 121.07 C 23.319 122.35 22.981 122.856 22.626 122.486 C 22.425 122.294 22.016 122.506 21.701 122.927 C 21.434 123.36 20.86 123.619 20.484 123.518 C 20.107 123.417 19.721 123.727 19.584 124.241 C 19.446 124.755 18.943 125.125 18.344 125.102 C 17.791 125.092 17.44 125.273 17.524 125.525 C 17.608 125.777 17.291 126.014 16.881 126.041 C 16.422 126.056 15.932 126.567 15.772 127.167 C 15.577 127.895 15.273 128.089 14.731 127.852 C 14.189 127.615 13.651 127.929 12.999 128.856 C 12.487 129.637 11.364 130.438 10.391 130.682 C 9.464 130.938 8.399 131.525 7.967 132.006 C 7.547 132.444 6.774 132.696 6.256 132.557 C 5.738 132.418 5.257 132.519 5.188 132.776 C 5.12 133.033 4.802 133.086 4.46 132.856 C 4.118 132.627 3.507 132.647 3.086 132.901 C 2.712 133.168 2.148 133.201 1.9 132.997 Z M 68.919 79.446 C 69.448 79.542 69.918 79.484 69.964 79.313 C 70.09 78.842 68.761 78.531 68.305 78.914 C 68.095 79.133 68.39 79.35 68.919 79.446 Z M 41.101 70.293 C 41.032 70.551 41.081 70.747 41.175 70.773 C 41.316 70.81 41.597 70.703 41.807 70.483 C 42.006 70.307 41.969 70.067 41.734 70.004 C 41.451 69.929 41.159 70.08 41.101 70.294 Z M 56.98 67.893 C 57.087 68.06 57.427 67.921 57.683 67.531 C 58.126 67.007 58.09 66.951 57.516 67.211 C 57.107 67.423 56.874 67.727 56.98 67.893 Z M 59.103 67.315 C 59.338 67.377 59.479 67.232 59.406 66.937 C 59.323 66.685 59.144 66.408 59.003 66.37 C 58.909 66.345 58.757 66.534 58.7 66.748 C 58.631 67.005 58.821 67.239 59.103 67.315 Z M 49.252 60.774 C 49.501 61.162 50.204 60.8 50.364 60.2 C 50.433 59.943 50.187 59.923 49.777 60.134 C 49.425 60.315 49.192 60.62 49.252 60.774 Z M 73.982 64.692 C 74.278 65.093 74.921 64.577 75.116 63.849 C 75.218 63.28 75.124 63.254 74.576 63.796 C 74.179 64.148 73.922 64.539 73.982 64.692 Z M 76.002 64.499 C 76.237 64.562 76.377 64.416 76.305 64.121 C 76.221 63.869 76.042 63.592 75.902 63.554 C 75.808 63.529 75.656 63.718 75.599 63.932 C 75.53 64.189 75.719 64.423 76.002 64.499 Z M 75.357 62.95 C 75.616 63.009 75.876 62.859 75.954 62.605 C 76.012 62.391 75.8 62.242 75.53 62.307 C 75.213 62.36 74.967 62.524 74.933 62.652 C 74.91 62.738 75.075 62.874 75.357 62.95 Z M 97.824 58.184 C 97.927 57.798 97.679 57.594 97.221 57.608 C 96.798 57.679 96.541 57.886 96.625 58.138 C 96.841 58.838 97.64 58.869 97.824 58.184 Z M 69.836 48.16 C 70.165 48.248 70.175 48.021 69.938 47.591 C 69.747 47.172 69.815 46.731 70.049 46.611 C 70.295 46.447 70.201 46.422 69.825 46.505 C 69.45 46.588 69.205 46.935 69.302 47.328 C 69.351 47.709 69.6 48.097 69.836 48.16 Z" fill="rgb(252,215,24)"></path><path d="M 79.024 22.812 C 79.082 22.598 78.869 22.45 78.599 22.515 C 78.282 22.568 78.037 22.732 78.002 22.86 C 77.98 22.946 78.145 23.082 78.427 23.157 C 78.686 23.216 78.946 23.066 79.024 22.812 Z" fill="rgb(252,215,24)"></path></g></svg>